<svg width="33" height="32" viewBox="0 0 33 32" fill="none" xmlns="http://www.w3.org/2000/svg">
<path fill-rule="evenodd" clip-rule="evenodd" d="M13.5949 2.17854C14.9378 -0.722933 19.0621 -0.722923 20.4049 2.17855L31.7421 26.6745C32.8929 29.161 31.077 32.0024 28.3371 32.0024H25.0413C24.9565 32.0019 23.2787 31.9788 22.5525 31.0729C22.1615 30.5851 22.0168 29.8131 21.9675 29.1895V24.5763C21.9675 21.8328 19.7434 19.6088 16.9999 19.6088C14.2564 19.6088 12.0324 21.8328 12.0324 24.5763V28.1858L12.0321 28.1818V29.027C11.9956 29.6736 11.8618 30.5418 11.4361 31.0729C10.7127 31.9754 9.04478 32.0017 8.94835 32.0024H5.66275C2.92286 32.0024 1.10695 29.161 2.25774 26.6745L13.5949 2.17854ZM12.0321 29.027L12.0324 29.0219V32.0024L12.0321 32.0025V29.027ZM17.1069 9.87112L10.0218 12.6683L13.3572 13.5184C13.3055 13.7641 13.2784 14.0186 13.2784 14.2795C13.2784 16.3329 14.9608 17.9976 17.036 17.9976C19.1113 17.9976 20.7937 16.3329 20.7937 14.2795C20.7937 14.0308 20.769 13.7877 20.7219 13.5527L22.3906 13.1274V14.8012C22.1205 14.87 21.921 15.1126 21.921 15.4013C21.921 15.6469 22.0653 15.8591 22.2746 15.9594L21.8693 16.6541H23.2251L22.8198 15.9594C23.0291 15.8591 23.1734 15.6469 23.1734 15.4013C23.1734 15.1126 22.9738 14.87 22.7037 14.8012V13.0476L24.1921 12.6683L17.1069 9.87112Z" fill="url(#paint0_linear_56_64)"/>
<defs>
<linearGradient id="paint0_linear_56_64" x1="1.90631" y1="16.0024" x2="32.0935" y2="16.0024" gradientUnits="userSpaceOnUse">
<stop stop-color="#FF512F"/>
<stop offset="1" stop-color="#DD2476"/>
</linearGradient>
</defs>
</svg>
